<?xml version="1.0" standalone="no"?>
<!DOCTYPE svg PUBLIC "-//W3C//DTD SVG 20010904//EN"
 "http://www.w3.org/TR/2001/REC-SVG-20010904/DTD/svg10.dtd">
<svg version="1.0" xmlns="http://www.w3.org/2000/svg"
 width="700.000000pt" height="700.000000pt" viewBox="0 0 700.000000 700.000000"
 preserveAspectRatio="xMidYMid meet">
<metadata>
Created by potrace 1.14, written by Peter Selinger 2001-2017
</metadata>
<g transform="translate(0.000000,700.000000) scale(0.100000,-0.100000)"
fill="#000000" stroke="none">
<path d="M210 5775 c0 -32 2 -35 30 -35 98 0 193 -110 236 -273 20 -77 20
-3927 0 -4004 -43 -163 -138 -273 -236 -273 -28 0 -30 -3 -30 -35 l0 -35 1295
0 1295 0 0 450 0 450 -34 0 c-34 0 -34 0 -40 -57 -21 -177 -84 -312 -201 -429
-90 -91 -155 -127 -256 -143 -39 -7 -302 -11 -681 -11 l-618 0 0 2008 c0 1955
1 2011 19 2085 44 169 128 267 229 267 30 0 32 2 32 35 l0 35 -520 0 -520 0 0
-35z"/>
<path d="M3010 5776 c0 -32 1 -34 46 -39 108 -12 190 -133 214 -319 8 -58 10
-657 8 -2003 -3 -1788 -4 -1924 -21 -1978 -23 -78 -51 -130 -94 -178 -43 -48
-81 -69 -123 -69 -28 0 -30 -3 -30 -35 l0 -35 500 0 500 0 0 34 c0 31 -2 34
-40 39 -57 7 -85 29 -131 99 -79 123 -74 40 -77 1191 l-2 1027 1145 0 1145 0
0 -997 c0 -1082 1 -1063 -55 -1173 -48 -95 -114 -150 -180 -150 -22 0 -25 -4
-25 -35 l0 -35 500 0 500 0 0 35 c0 31 -3 35 -26 35 -88 0 -171 107 -215 278
-18 73 -19 129 -19 2006 0 2098 -2 1999 55 2124 43 94 103 142 175 142 28 0
30 3 30 35 l0 35 -500 0 -500 0 0 -35 c0 -31 3 -35 28 -35 94 -1 181 -102 217
-252 12 -53 15 -196 15 -895 l0 -833 -1145 0 -1145 0 0 838 c0 922 -1 907 63
1025 36 69 99 117 154 117 31 0 33 2 33 35 l0 35 -500 0 -500 0 0 -34z"/>
</g>
</svg>
