<?xml version="1.0" encoding="UTF-8"?>
<svg width="100px" height="100px" viewBox="0 0 100 100" version="1.1" xmlns="http://www.w3.org/2000/svg" xmlns:xlink="http://www.w3.org/1999/xlink">
    <!-- Generator: Sketch 63.1 (92452) - https://sketch.com -->
    <title>LH</title>
    <desc>Created with Sketch.</desc>
    <g id="LH" stroke="none" stroke-width="1" fill="none" fill-rule="evenodd">
        <path d="M40,84 L40,71.2090909 L38.972973,71.2090909 C38.972973,72.0888889 38.8189189,73.0532828 38.5108108,74.1022727 C38.2027027,75.1512626 37.7234234,76.1325758 37.072973,77.0462121 C36.4225225,77.9598485 35.618018,78.7212121 34.6594595,79.330303 C33.7009009,79.9393939 32.5711712,80.2439394 31.2702703,80.2439394 L13.8864865,80.2439394 L13.8864865,23.2939394 C13.8864865,22.820202 13.9720721,22.2787879 14.1432432,21.669697 C14.3144144,21.0606061 14.5369369,20.4853535 14.8108108,19.9439394 C15.0846847,19.4025253 15.427027,18.9457071 15.8378378,18.5734848 C16.2486486,18.2012626 16.7279279,18.0151515 17.2756757,18.0151515 L17.7891892,18.0151515 L17.7891892,17 L3,17 L3,18.0151515 L3.51351351,18.0151515 C4.06126126,18.0151515 4.54054054,18.2012626 4.95135135,18.5734848 C5.36216216,18.9457071 5.72162162,19.4025253 6.02972973,19.9439394 C6.33783784,20.4853535 6.57747748,21.0606061 6.74864865,21.669697 C6.91981982,22.2787879 7.00540541,22.820202 7.00540541,23.2939394 L7.00540541,77.6045455 C7.00540541,78.1459596 6.91981982,78.7212121 6.74864865,79.330303 C6.57747748,79.9393939 6.33783784,80.5146465 6.02972973,81.0560606 C5.72162162,81.5974747 5.36216216,82.0542929 4.95135135,82.4265152 C4.54054054,82.7987374 4.06126126,82.9848485 3.51351351,82.9848485 L3,82.9848485 L3,84 L40,84 Z M57.345351,84 L57.345351,82.9848485 L56.8330171,82.9848485 C56.2865275,82.9848485 55.8254269,82.7818182 55.4497154,82.3757576 C55.0740038,81.969697 54.7495256,81.4959596 54.4762808,80.9545455 C54.2030361,80.4131313 53.9981025,79.8209596 53.8614801,79.1780303 C53.7248577,78.535101 53.6565465,77.9429293 53.6565465,77.4015152 L53.6565465,77.4015152 L53.6565465,49.7893939 L86.4459203,49.7893939 L86.4459203,77.4015152 C86.4459203,77.9429293 86.3776091,78.535101 86.2409867,79.1780303 C86.1043643,79.8209596 85.8823529,80.4300505 85.5749526,81.005303 C85.2675522,81.5805556 84.9089184,82.0542929 84.4990512,82.4265152 C84.0891841,82.7987374 83.6451613,82.9848485 83.1669829,82.9848485 L83.1669829,82.9848485 L82.654649,82.9848485 L82.654649,84 L97,84 L97,82.9848485 L96.487666,82.9848485 C96.0094877,82.9848485 95.5825427,82.7818182 95.2068311,82.3757576 C94.8311195,81.969697 94.5066414,81.4959596 94.2333966,80.9545455 C93.9601518,80.4131313 93.7381404,79.8209596 93.5673624,79.1780303 C93.3965844,78.535101 93.3111954,77.9429293 93.3111954,77.4015152 L93.3111954,77.4015152 L93.3111954,23.2939394 C93.3111954,22.820202 93.3795066,22.2787879 93.516129,21.669697 C93.6527514,21.0606061 93.8406072,20.4853535 94.0796964,19.9439394 C94.3187856,19.4025253 94.6432638,18.9457071 95.0531309,18.5734848 C95.4629981,18.2012626 95.9411765,18.0151515 96.487666,18.0151515 L96.487666,18.0151515 L97,18.0151515 L97,17 L82.654649,17 L82.654649,18.0151515 L83.1669829,18.0151515 C83.7134725,18.0151515 84.1916509,18.2012626 84.601518,18.5734848 C85.0113852,18.9457071 85.3529412,19.4025253 85.626186,19.9439394 C85.8994307,20.4853535 86.1043643,21.0606061 86.2409867,21.669697 C86.3776091,22.2787879 86.4459203,22.820202 86.4459203,23.2939394 L86.4459203,23.2939394 L86.4459203,46.2363636 L53.6565465,46.2363636 L53.6565465,23.2939394 C53.6565465,22.820202 53.7248577,22.2787879 53.8614801,21.669697 C53.9981025,21.0606061 54.1859583,20.4853535 54.4250474,19.9439394 C54.6641366,19.4025253 54.9886148,18.9457071 55.398482,18.5734848 C55.8083491,18.2012626 56.2865275,18.0151515 56.8330171,18.0151515 L56.8330171,18.0151515 L57.345351,18.0151515 L57.345351,17 L43,17 L43,18.0151515 L43.512334,18.0151515 C44.0588235,18.0151515 44.5370019,18.2012626 44.9468691,18.5734848 C45.3567362,18.9457071 45.6982922,19.4025253 45.971537,19.9439394 C46.2447818,20.4853535 46.4497154,21.0606061 46.5863378,21.669697 C46.7229602,22.2787879 46.7912713,22.820202 46.7912713,23.2939394 L46.7912713,23.2939394 L46.7912713,77.4015152 C46.7912713,77.9429293 46.7229602,78.535101 46.5863378,79.1780303 C46.4497154,79.8209596 46.227704,80.4300505 45.9203036,81.005303 C45.6129032,81.5805556 45.2542694,82.0542929 44.8444023,82.4265152 C44.4345351,82.7987374 43.9905123,82.9848485 43.512334,82.9848485 L43.512334,82.9848485 L43,82.9848485 L43,84 L57.345351,84 Z" fill="#000000" fill-rule="nonzero"></path>
    </g>
</svg>